<svg xmlns="http://www.w3.org/2000/svg" viewBox="0 0 93.1 34.6"><title>Asset 4</title><g id="Layer_2" data-name="Layer 2"><g id="Layer_1-2" data-name="Layer 1"><path d="M91.8,0H1.2A1.2,1.2,0,0,0,0,1.2V26.5a1.2,1.2,0,0,0,1.2,1.2H42.1l.3.2,3.8,6.5a.4.4,0,0,0,.6,0l3.8-6.5.3-.2H91.8A1.2,1.2,0,0,0,93,26.5V1.2A1.2,1.2,0,0,0,91.8,0Z" fill="#3f51b5"/><path d="M62.7,27.8H91.9a1.2,1.2,0,0,0,1.2-1.2V1.2A1.2,1.2,0,0,0,91.9,0H62.7" fill="#57c148"/><path d="M84.2,7.3l2.2,2.3L75.1,20.5l-5.6-6.3,2.4-2.1,3.4,3.8Z" fill="#fff"/></g></g></svg>