<svg xmlns="http://www.w3.org/2000/svg" viewBox="0 0 93.1 34.6"><title>Asset 3</title><g id="Layer_2" data-name="Layer 2"><g id="Layer_1-2" data-name="Layer 1"><path d="M91.8,0H1.2A1.2,1.2,0,0,0,0,1.2V26.5a1.2,1.2,0,0,0,1.2,1.2H42.1l.3.2,3.8,6.5a.4.4,0,0,0,.6,0l3.8-6.5.3-.2H91.8A1.2,1.2,0,0,0,93,26.5V1.2A1.2,1.2,0,0,0,91.8,0Z" fill="#3f51b5"/><path d="M62.7,27.8H91.9a1.2,1.2,0,0,0,1.2-1.2V1.2A1.2,1.2,0,0,0,91.9,0H62.7" fill="#dd4f17"/><rect x="75.4" y="6" width="5.1" height="9" fill="#fff"/><rect x="75.4" y="18.4" width="5.1" height="3.98" fill="#fff"/></g></g></svg>